# xmcd
#
# Track frame offsets:
#   150
#   14065
#   29035
#   43615
#   57835
#   68235
#   81735
#   94627
#   107977
#   120135
#   134050
#   146955
#   159015
#   171552
#   185452
#   198482
#   212695
#   226495
#   240115
#   251452
#   264805
#   277977
#   293097
#   305490
#
# Disc length: 4267 seconds
#
# Revision: 2
# Processed by: cddbd v1.5.1PL0 Copyright (c) Steve Scherf et al.
# Submitted via: Media_Universe 3.0
#
DISCID=5f10a918
DTITLE=Billie Holiday - A Portrait of
DYEAR=1997
DGENRE=Blues
TTITLE0=My Man
TTITLE1=These Foolish Things
TTITLE2=Gloomy Sunday
TTITLE3=Carelessly
TTITLE4=Romance In The Dark
TTITLE5=You're Just A No Account
TTITLE6=Falling In Love Again
TTITLE7=Swing, Brother, Swing
TTITLE8=What Is This Going To Get Us?
TTITLE9=They Say
TTITLE10=Them There Eyes
TTITLE11=She's Funny That Way
TTITLE12=I Can't Believe That You're In Love With Me
TTITLE13=I'll Never Be The Same
TTITLE14=Without Your Love
TTITLE15=Mean To Me
TTITLE16=Sun Showers
TTITLE17=You Showed Me The Way
TTITLE18=How Could You
TTITLE19=I Must Have That Man
TTITLE20=You Let Me Down
TTITLE21=It's Like Reaching For The Moon
TTITLE22=It's Too Hot For Words
TTITLE23=If You Were Mine
EXTD=
EXTT0=
EXTT1=
EXTT2=
EXTT3=
EXTT4=
EXTT5=
EXTT6=
EXTT7=
EXTT8=
EXTT9=
EXTT10=
EXTT11=
EXTT12=
EXTT13=
EXTT14=
EXTT15=
EXTT16=
EXTT17=
EXTT18=
EXTT19=
EXTT20=
EXTT21=
EXTT22=
EXTT23=
PLAYORDER=
